HIERARCHY
ROOT pelvis
{
  OFFSET 0 100 0
  CHANNELS 6 Xposition Yposition Zposition Zrotation Xrotation Yrotation
  JOINT pelvis_right_femur
  {
    OFFSET -10.78128 -3.44521 -0.5502486
    CHANNELS 3 Zrotation Xrotation Yrotation
    JOINT right_femur_tibia
    {
      OFFSET -0.8047443 -44.0398 -0.1307829
      CHANNELS 3 Zrotation Xrotation Yrotation
      JOINT right_tibia_foot
      {
        OFFSET 3.006224 -47.83518 -5
        CHANNELS 3 Zrotation Xrotation Yrotation
        End Site
        {
          OFFSET 0 -5 15
        }
      }
    }
  }
  JOINT pelvis_left_femur
  {
    OFFSET 10.78128 -3.44521 -0.5502486
    CHANNELS 3 Zrotation Xrotation Yrotation
    JOINT left_femur_tibia
    {
      OFFSET 0.8047443 -44.0398 -0.1307829
      CHANNELS 3 Zrotation Xrotation Yrotation
      JOINT left_tibia_foot
      {
        OFFSET -4.370144 -48.10324 -4.275266
        CHANNELS 3 Zrotation Xrotation Yrotation
        End Site
        {
          OFFSET 0 -5 15
        }
      }
    }
  }
  JOINT pelvis_spine1
  {
    OFFSET 0 6.468898 -3.129235
    CHANNELS 3 Zrotation Xrotation Yrotation
    JOINT spine1
    {
      OFFSET 0 23.15396 4.99043
      CHANNELS 3 Zrotation Xrotation Yrotation
      JOINT spine2
      {
        OFFSET 0 20.79997 -5.064912
        CHANNELS 3 Zrotation Xrotation Yrotation
        JOINT neck
        {
          OFFSET 0 14.38658 9.616178
          CHANNELS 3 Zrotation Xrotation Yrotation
          End Site
          {
            OFFSET 0 20 0
          }
        }
      }
      JOINT right_manubrium
      {
        OFFSET -5.722621 16.35077 3.967754
        CHANNELS 3 Zrotation Xrotation Yrotation
        JOINT right_clavicle
        {
          OFFSET -13.16364 1.694482 -4.693211
          CHANNELS 3 Zrotation Xrotation Yrotation
          JOINT right_humerus
          {
            OFFSET -28.5034 -0.3100689 -2.792744
            CHANNELS 3 Zrotation Xrotation Yrotation
            JOINT right_radius
            {
              OFFSET -25.15693 0.02248979 -1.271978
              CHANNELS 3 Zrotation Xrotation Yrotation
              End Site
              {
                OFFSET -15 0 0
              }
            }
          }
        }
      }
      JOINT left_manubrium
      {
        OFFSET 5.722621 16.35077 3.967754
        CHANNELS 3 Zrotation Xrotation Yrotation
        JOINT left_clavicle
        {
          OFFSET 13.16364 1.694482 -4.693211
          CHANNELS 3 Zrotation Xrotation Yrotation
          JOINT left_humerus
          {
            OFFSET 29.39168 -1.063119 -2.237045
            CHANNELS 3 Zrotation Xrotation Yrotation
            JOINT left_radius
            {
              OFFSET 24.59957 -0.9528479 0.9047498
              CHANNELS 3 Zrotation Xrotation Yrotation
              End Site
              {
                OFFSET 15 -0 -0
              }
            }
          }
        }
      }
    }
  }
}
MOTION
Frames: 9
Frame Time: 0.0416666666667
-30.34282 108.6893 -61.05413 1.491731 -7.524073 17.31597 6.248503 16.76073 0.705063 -0 9.151162 -0 -10.16591 -16.66244 -2.584781 3.384738 -22.12186 -2.797056 -0 20.43748 -0 0.2679521 -3.907095 19.73186 0.2768664 -0.5550404 6.784569 0.4808068 12.16387 -4.78523 0.9423839 21.99043 3.215351 0.4187772 -20.44155 5.31972 -2.183587 -26.3166 11.90785 86.75134 23.96438 -7.663558 -0 0 21.73274 -19.76068 10.45672 12.96943 3.147338 -19.32036 -4.244734 -93.59441 16.15286 30.42647 0 0 -8.42164 6.965675 13.04307 4.607394
-28.30745 108.679 -56.06113 1.397797 -7.541989 16.59946 6.248503 16.76073 0.705063 -0 9.151162 -0 -10.16591 -16.66244 -2.584781 3.384738 -22.12186 -2.797056 -0 20.43748 -0 0.2679521 -3.907095 19.73186 0.2768664 -0.5550404 6.784569 0.4808068 12.16387 -4.78523 0.9423839 21.99043 3.215351 0.4187772 -20.44155 5.31972 -2.183587 -26.3166 11.90785 86.75134 23.96438 -7.663558 -0 0 21.73274 -19.76068 10.45672 12.96943 3.147338 -19.32036 -4.244734 -93.59441 16.15286 30.42647 0 0 -8.42164 6.965675 13.04307 4.607394
-26.33417 108.6686 -51.04327 1.30364 -7.558738 15.88289 6.248503 16.76073 0.705063 -0 9.151162 -0 -10.16591 -16.66244 -2.584781 3.384738 -22.12186 -2.797056 -0 20.43748 -0 0.2679521 -3.907095 19.73186 0.2768664 -0.5550404 6.784569 0.4808068 12.16387 -4.78523 0.9423839 21.99043 3.215351 0.4187772 -20.44155 5.31972 -2.183587 -26.3166 11.90785 86.75134 23.96438 -7.663558 -0 0 21.73274 -19.76068 10.45672 12.96943 3.147338 -19.32036 -4.244734 -93.59441 16.15286 30.42647 0 0 -8.42164 6.965675 13.04307 4.607394
-24.42326 108.6582 -46.00132 1.209276 -7.574319 15.16627 6.248503 16.76073 0.705063 -0 9.151162 -0 -10.16591 -16.66244 -2.584781 3.384738 -22.12186 -2.797056 -0 20.43748 -0 0.2679521 -3.907095 19.73186 0.2768664 -0.5550404 6.784569 0.4808068 12.16387 -4.78523 0.9423839 21.99043 3.215351 0.4187772 -20.44155 5.31972 -2.183587 -26.3166 11.90785 86.75134 23.96438 -7.663558 -0 0 21.73274 -19.76068 10.45672 12.96943 3.147338 -19.32036 -4.244734 -93.59441 16.15286 30.42647 0 0 -8.42164 6.965675 13.04307 4.607394
-22.57503 108.6478 -40.93606 1.114719 -7.588729 14.44959 6.248503 16.76073 0.705063 -0 9.151162 -0 -10.16591 -16.66244 -2.584781 3.384738 -22.12186 -2.797056 -0 20.43748 -0 0.2679521 -3.907095 19.73186 0.2768664 -0.5550404 6.784569 0.4808068 12.16387 -4.78523 0.9423839 21.99043 3.215351 0.4187772 -20.44155 5.31972 -2.183587 -26.3166 11.90785 86.75134 23.96438 -7.663558 -0 0 21.73274 -19.76068 10.45672 12.96943 3.147338 -19.32036 -4.244734 -93.59441 16.15286 30.42647 0 0 -8.42164 6.965675 13.04307 4.607394
-20.78975 108.6375 -35.84828 1.019984 -7.601965 13.73287 6.248503 16.76073 0.705063 -0 9.151162 -0 -10.16591 -16.66244 -2.584781 3.384738 -22.12186 -2.797056 -0 20.43748 -0 0.2679521 -3.907095 19.73186 0.2768664 -0.5550404 6.784569 0.4808068 12.16387 -4.78523 0.9423839 21.99043 3.215351 0.4187772 -20.44155 5.31972 -2.183587 -26.3166 11.90785 86.75134 23.96438 -7.663558 -0 0 21.73274 -19.76068 10.45672 12.96943 3.147338 -19.32036 -4.244734 -93.59441 16.15286 30.42647 0 0 -8.42164 6.965675 13.04307 4.607394
-19.06771 108.6271 -30.73874 0.9250876 -7.614026 13.01611 6.248503 16.76073 0.705063 -0 9.151162 -0 -10.16591 -16.66244 -2.584781 3.384738 -22.12186 -2.797056 -0 20.43748 -0 0.2679521 -3.907095 19.73186 0.2768664 -0.5550404 6.784569 0.4808068 12.16387 -4.78523 0.9423839 21.99043 3.215351 0.4187772 -20.44155 5.31972 -2.183587 -26.3166 11.90785 86.75134 23.96438 -7.663558 -0 0 21.73274 -19.76068 10.45672 12.96943 3.147338 -19.32036 -4.244734 -93.59441 16.15286 30.42647 0 0 -8.42164 6.965675 13.04307 4.607394
-17.40916 108.6167 -25.60824 0.8300435 -7.624908 12.29931 6.248503 16.76073 0.705063 -0 9.151162 -0 -10.16591 -16.66244 -2.584781 3.384738 -22.12186 -2.797056 -0 20.43748 -0 0.2679521 -3.907095 19.73186 0.2768664 -0.5550404 6.784569 0.4808068 12.16387 -4.78523 0.9423839 21.99043 3.215351 0.4187772 -20.44155 5.31972 -2.183587 -26.3166 11.90785 86.75134 23.96438 -7.663558 -0 0 21.73274 -19.76068 10.45672 12.96943 3.147338 -19.32036 -4.244734 -93.59441 16.15286 30.42647 0 0 -8.42164 6.965675 13.04307 4.607394
-15.81437 108.6063 -20.45757 0.7348671 -7.634612 11.58247 6.248503 16.76073 0.705063 -0 9.151162 -0 -10.16591 -16.66244 -2.584781 3.384738 -22.12186 -2.797056 -0 20.43748 -0 0.2679521 -3.907095 19.73186 0.2768664 -0.5550404 6.784569 0.4808068 12.16387 -4.78523 0.9423839 21.99043 3.215351 0.4187772 -20.44155 5.31972 -2.183587 -26.3166 11.90785 86.75134 23.96438 -7.663558 -0 0 21.73274 -19.76068 10.45672 12.96943 3.147338 -19.32036 -4.244734 -93.59441 16.15286 30.42647 0 0 -8.42164 6.965675 13.04307 4.607394
